<mxfile host="app.diagrams.net" modified="2021-04-16T14:51:31.873Z" agent="5.0 (Windows)" etag="zRxG5ul66Db3GAqoW26V" version="14.4.3" type="github">
  <diagram id="C5RBs43oDa-KdzZeNtuy" name="Page-1">
    <mxGraphModel dx="1422" dy="801" grid="1" gridSize="10" guides="1" tooltips="1" connect="1" arrows="1" fold="1" page="1" pageScale="1" pageWidth="827" pageHeight="1169" math="0" shadow="0">
      <root>
        <mxCell id="WIyWlLk6GJQsqaUBKTNV-0" />
        <mxCell id="WIyWlLk6GJQsqaUBKTNV-1" parent="WIyWlLk6GJQsqaUBKTNV-0" />
        <mxCell id="5CZ-4Wgj8pEYRW3QLdcZ-4" value="Archer" style="swimlane;fontStyle=1;align=center;verticalAlign=top;childLayout=stackLayout;horizontal=1;startSize=26;horizontalStack=0;resizeParent=1;resizeParentMax=0;resizeLast=0;collapsible=1;marginBottom=0;" vertex="1" parent="WIyWlLk6GJQsqaUBKTNV-1">
          <mxGeometry x="844" y="120" width="160" height="60" as="geometry" />
        </mxCell>
        <mxCell id="5CZ-4Wgj8pEYRW3QLdcZ-6" value="" style="line;strokeWidth=1;fillColor=none;align=left;verticalAlign=middle;spacingTop=-1;spacingLeft=3;spacingRight=3;rotatable=0;labelPosition=right;points=[];portConstraint=eastwest;" vertex="1" parent="5CZ-4Wgj8pEYRW3QLdcZ-4">
          <mxGeometry y="26" width="160" height="8" as="geometry" />
        </mxCell>
        <mxCell id="5CZ-4Wgj8pEYRW3QLdcZ-7" value="+ attack(character): void" style="text;strokeColor=none;fillColor=none;align=left;verticalAlign=top;spacingLeft=4;spacingRight=4;overflow=hidden;rotatable=0;points=[[0,0.5],[1,0.5]];portConstraint=eastwest;" vertex="1" parent="5CZ-4Wgj8pEYRW3QLdcZ-4">
          <mxGeometry y="34" width="160" height="26" as="geometry" />
        </mxCell>
        <mxCell id="5CZ-4Wgj8pEYRW3QLdcZ-8" value="Warrior" style="swimlane;fontStyle=1;align=center;verticalAlign=top;childLayout=stackLayout;horizontal=1;startSize=26;horizontalStack=0;resizeParent=1;resizeParentMax=0;resizeLast=0;collapsible=1;marginBottom=0;" vertex="1" parent="WIyWlLk6GJQsqaUBKTNV-1">
          <mxGeometry x="674" y="120" width="160" height="60" as="geometry" />
        </mxCell>
        <mxCell id="5CZ-4Wgj8pEYRW3QLdcZ-9" value="" style="line;strokeWidth=1;fillColor=none;align=left;verticalAlign=middle;spacingTop=-1;spacingLeft=3;spacingRight=3;rotatable=0;labelPosition=right;points=[];portConstraint=eastwest;" vertex="1" parent="5CZ-4Wgj8pEYRW3QLdcZ-8">
          <mxGeometry y="26" width="160" height="8" as="geometry" />
        </mxCell>
        <mxCell id="5CZ-4Wgj8pEYRW3QLdcZ-10" value="+ attack(character): void" style="text;strokeColor=none;fillColor=none;align=left;verticalAlign=top;spacingLeft=4;spacingRight=4;overflow=hidden;rotatable=0;points=[[0,0.5],[1,0.5]];portConstraint=eastwest;" vertex="1" parent="5CZ-4Wgj8pEYRW3QLdcZ-8">
          <mxGeometry y="34" width="160" height="26" as="geometry" />
        </mxCell>
        <mxCell id="5CZ-4Wgj8pEYRW3QLdcZ-11" value="Wizard" style="swimlane;fontStyle=1;align=center;verticalAlign=top;childLayout=stackLayout;horizontal=1;startSize=26;horizontalStack=0;resizeParent=1;resizeParentMax=0;resizeLast=0;collapsible=1;marginBottom=0;" vertex="1" parent="WIyWlLk6GJQsqaUBKTNV-1">
          <mxGeometry x="1014" y="120" width="160" height="80" as="geometry" />
        </mxCell>
        <mxCell id="5CZ-4Wgj8pEYRW3QLdcZ-12" value="" style="line;strokeWidth=1;fillColor=none;align=left;verticalAlign=middle;spacingTop=-1;spacingLeft=3;spacingRight=3;rotatable=0;labelPosition=right;points=[];portConstraint=eastwest;" vertex="1" parent="5CZ-4Wgj8pEYRW3QLdcZ-11">
          <mxGeometry y="26" width="160" height="8" as="geometry" />
        </mxCell>
        <mxCell id="5CZ-4Wgj8pEYRW3QLdcZ-13" value="+ attack(character): void&#xa;+ buff(character): void&#xa;" style="text;strokeColor=none;fillColor=none;align=left;verticalAlign=top;spacingLeft=4;spacingRight=4;overflow=hidden;rotatable=0;points=[[0,0.5],[1,0.5]];portConstraint=eastwest;" vertex="1" parent="5CZ-4Wgj8pEYRW3QLdcZ-11">
          <mxGeometry y="34" width="160" height="46" as="geometry" />
        </mxCell>
        <mxCell id="5CZ-4Wgj8pEYRW3QLdcZ-16" value="Elf" style="swimlane;fontStyle=1;align=center;verticalAlign=top;childLayout=stackLayout;horizontal=1;startSize=26;horizontalStack=0;resizeParent=1;resizeParentMax=0;resizeLast=0;collapsible=1;marginBottom=0;" vertex="1" parent="WIyWlLk6GJQsqaUBKTNV-1">
          <mxGeometry x="510" y="50" width="150" height="100" as="geometry" />
        </mxCell>
        <mxCell id="5CZ-4Wgj8pEYRW3QLdcZ-17" value="- healh: int" style="text;strokeColor=none;fillColor=none;align=left;verticalAlign=top;spacingLeft=4;spacingRight=4;overflow=hidden;rotatable=0;points=[[0,0.5],[1,0.5]];portConstraint=eastwest;" vertex="1" parent="5CZ-4Wgj8pEYRW3QLdcZ-16">
          <mxGeometry y="26" width="150" height="26" as="geometry" />
        </mxCell>
        <mxCell id="5CZ-4Wgj8pEYRW3QLdcZ-18" value="" style="line;strokeWidth=1;fillColor=none;align=left;verticalAlign=middle;spacingTop=-1;spacingLeft=3;spacingRight=3;rotatable=0;labelPosition=right;points=[];portConstraint=eastwest;" vertex="1" parent="5CZ-4Wgj8pEYRW3QLdcZ-16">
          <mxGeometry y="52" width="150" height="8" as="geometry" />
        </mxCell>
        <mxCell id="5CZ-4Wgj8pEYRW3QLdcZ-19" value="+ getHealth(int): int&#xa;+ setHealth(int): int&#xa;" style="text;strokeColor=none;fillColor=none;align=left;verticalAlign=top;spacingLeft=4;spacingRight=4;overflow=hidden;rotatable=0;points=[[0,0.5],[1,0.5]];portConstraint=eastwest;" vertex="1" parent="5CZ-4Wgj8pEYRW3QLdcZ-16">
          <mxGeometry y="60" width="150" height="40" as="geometry" />
        </mxCell>
        <mxCell id="5CZ-4Wgj8pEYRW3QLdcZ-20" value="" style="html=1;verticalAlign=bottom;endArrow=block;entryX=1;entryY=0.5;entryDx=0;entryDy=0;exitX=0.5;exitY=0;exitDx=0;exitDy=0;" edge="1" parent="WIyWlLk6GJQsqaUBKTNV-1" source="5CZ-4Wgj8pEYRW3QLdcZ-8" target="5CZ-4Wgj8pEYRW3QLdcZ-17">
          <mxGeometry width="80" relative="1" as="geometry">
            <mxPoint x="810" y="370" as="sourcePoint" />
            <mxPoint x="890" y="370" as="targetPoint" />
            <Array as="points">
              <mxPoint x="730" y="89" />
            </Array>
          </mxGeometry>
        </mxCell>
        <mxCell id="5CZ-4Wgj8pEYRW3QLdcZ-21" value="" style="html=1;verticalAlign=bottom;endArrow=block;entryX=1;entryY=0.5;entryDx=0;entryDy=0;exitX=0.5;exitY=0;exitDx=0;exitDy=0;" edge="1" parent="WIyWlLk6GJQsqaUBKTNV-1" source="5CZ-4Wgj8pEYRW3QLdcZ-4" target="5CZ-4Wgj8pEYRW3QLdcZ-17">
          <mxGeometry width="80" relative="1" as="geometry">
            <mxPoint x="810" y="370" as="sourcePoint" />
            <mxPoint x="890" y="370" as="targetPoint" />
            <Array as="points">
              <mxPoint x="900" y="89" />
            </Array>
          </mxGeometry>
        </mxCell>
        <mxCell id="5CZ-4Wgj8pEYRW3QLdcZ-23" value="" style="html=1;verticalAlign=bottom;endArrow=block;entryX=1;entryY=0.5;entryDx=0;entryDy=0;exitX=0.5;exitY=0;exitDx=0;exitDy=0;" edge="1" parent="WIyWlLk6GJQsqaUBKTNV-1" source="5CZ-4Wgj8pEYRW3QLdcZ-11" target="5CZ-4Wgj8pEYRW3QLdcZ-17">
          <mxGeometry width="80" relative="1" as="geometry">
            <mxPoint x="810" y="370" as="sourcePoint" />
            <mxPoint x="890" y="370" as="targetPoint" />
            <Array as="points">
              <mxPoint x="1070" y="89" />
            </Array>
          </mxGeometry>
        </mxCell>
        <mxCell id="5CZ-4Wgj8pEYRW3QLdcZ-24" value="Archer" style="swimlane;fontStyle=1;align=center;verticalAlign=top;childLayout=stackLayout;horizontal=1;startSize=26;horizontalStack=0;resizeParent=1;resizeParentMax=0;resizeLast=0;collapsible=1;marginBottom=0;" vertex="1" parent="WIyWlLk6GJQsqaUBKTNV-1">
          <mxGeometry x="844" y="280" width="160" height="60" as="geometry" />
        </mxCell>
        <mxCell id="5CZ-4Wgj8pEYRW3QLdcZ-25" value="" style="line;strokeWidth=1;fillColor=none;align=left;verticalAlign=middle;spacingTop=-1;spacingLeft=3;spacingRight=3;rotatable=0;labelPosition=right;points=[];portConstraint=eastwest;" vertex="1" parent="5CZ-4Wgj8pEYRW3QLdcZ-24">
          <mxGeometry y="26" width="160" height="8" as="geometry" />
        </mxCell>
        <mxCell id="5CZ-4Wgj8pEYRW3QLdcZ-26" value="+ attack(character): void" style="text;strokeColor=none;fillColor=none;align=left;verticalAlign=top;spacingLeft=4;spacingRight=4;overflow=hidden;rotatable=0;points=[[0,0.5],[1,0.5]];portConstraint=eastwest;" vertex="1" parent="5CZ-4Wgj8pEYRW3QLdcZ-24">
          <mxGeometry y="34" width="160" height="26" as="geometry" />
        </mxCell>
        <mxCell id="5CZ-4Wgj8pEYRW3QLdcZ-27" value="Warrior" style="swimlane;fontStyle=1;align=center;verticalAlign=top;childLayout=stackLayout;horizontal=1;startSize=26;horizontalStack=0;resizeParent=1;resizeParentMax=0;resizeLast=0;collapsible=1;marginBottom=0;" vertex="1" parent="WIyWlLk6GJQsqaUBKTNV-1">
          <mxGeometry x="674" y="280" width="160" height="60" as="geometry" />
        </mxCell>
        <mxCell id="5CZ-4Wgj8pEYRW3QLdcZ-28" value="" style="line;strokeWidth=1;fillColor=none;align=left;verticalAlign=middle;spacingTop=-1;spacingLeft=3;spacingRight=3;rotatable=0;labelPosition=right;points=[];portConstraint=eastwest;" vertex="1" parent="5CZ-4Wgj8pEYRW3QLdcZ-27">
          <mxGeometry y="26" width="160" height="8" as="geometry" />
        </mxCell>
        <mxCell id="5CZ-4Wgj8pEYRW3QLdcZ-29" value="+ attack(character): void" style="text;strokeColor=none;fillColor=none;align=left;verticalAlign=top;spacingLeft=4;spacingRight=4;overflow=hidden;rotatable=0;points=[[0,0.5],[1,0.5]];portConstraint=eastwest;" vertex="1" parent="5CZ-4Wgj8pEYRW3QLdcZ-27">
          <mxGeometry y="34" width="160" height="26" as="geometry" />
        </mxCell>
        <mxCell id="5CZ-4Wgj8pEYRW3QLdcZ-30" value="Wizard" style="swimlane;fontStyle=1;align=center;verticalAlign=top;childLayout=stackLayout;horizontal=1;startSize=26;horizontalStack=0;resizeParent=1;resizeParentMax=0;resizeLast=0;collapsible=1;marginBottom=0;" vertex="1" parent="WIyWlLk6GJQsqaUBKTNV-1">
          <mxGeometry x="1014" y="280" width="160" height="80" as="geometry" />
        </mxCell>
        <mxCell id="5CZ-4Wgj8pEYRW3QLdcZ-31" value="" style="line;strokeWidth=1;fillColor=none;align=left;verticalAlign=middle;spacingTop=-1;spacingLeft=3;spacingRight=3;rotatable=0;labelPosition=right;points=[];portConstraint=eastwest;" vertex="1" parent="5CZ-4Wgj8pEYRW3QLdcZ-30">
          <mxGeometry y="26" width="160" height="8" as="geometry" />
        </mxCell>
        <mxCell id="5CZ-4Wgj8pEYRW3QLdcZ-32" value="+ attack(character): void&#xa;+ buff(character): void&#xa;" style="text;strokeColor=none;fillColor=none;align=left;verticalAlign=top;spacingLeft=4;spacingRight=4;overflow=hidden;rotatable=0;points=[[0,0.5],[1,0.5]];portConstraint=eastwest;" vertex="1" parent="5CZ-4Wgj8pEYRW3QLdcZ-30">
          <mxGeometry y="34" width="160" height="46" as="geometry" />
        </mxCell>
        <mxCell id="5CZ-4Wgj8pEYRW3QLdcZ-33" value="People" style="swimlane;fontStyle=1;align=center;verticalAlign=top;childLayout=stackLayout;horizontal=1;startSize=26;horizontalStack=0;resizeParent=1;resizeParentMax=0;resizeLast=0;collapsible=1;marginBottom=0;" vertex="1" parent="WIyWlLk6GJQsqaUBKTNV-1">
          <mxGeometry x="510" y="210" width="150" height="100" as="geometry" />
        </mxCell>
        <mxCell id="5CZ-4Wgj8pEYRW3QLdcZ-34" value="- healh: int" style="text;strokeColor=none;fillColor=none;align=left;verticalAlign=top;spacingLeft=4;spacingRight=4;overflow=hidden;rotatable=0;points=[[0,0.5],[1,0.5]];portConstraint=eastwest;" vertex="1" parent="5CZ-4Wgj8pEYRW3QLdcZ-33">
          <mxGeometry y="26" width="150" height="26" as="geometry" />
        </mxCell>
        <mxCell id="5CZ-4Wgj8pEYRW3QLdcZ-35" value="" style="line;strokeWidth=1;fillColor=none;align=left;verticalAlign=middle;spacingTop=-1;spacingLeft=3;spacingRight=3;rotatable=0;labelPosition=right;points=[];portConstraint=eastwest;" vertex="1" parent="5CZ-4Wgj8pEYRW3QLdcZ-33">
          <mxGeometry y="52" width="150" height="8" as="geometry" />
        </mxCell>
        <mxCell id="5CZ-4Wgj8pEYRW3QLdcZ-36" value="+ getHealth(int): int&#xa;+ setHealth(int): int&#xa;" style="text;strokeColor=none;fillColor=none;align=left;verticalAlign=top;spacingLeft=4;spacingRight=4;overflow=hidden;rotatable=0;points=[[0,0.5],[1,0.5]];portConstraint=eastwest;" vertex="1" parent="5CZ-4Wgj8pEYRW3QLdcZ-33">
          <mxGeometry y="60" width="150" height="40" as="geometry" />
        </mxCell>
        <mxCell id="5CZ-4Wgj8pEYRW3QLdcZ-37" value="" style="html=1;verticalAlign=bottom;endArrow=block;entryX=1;entryY=0.5;entryDx=0;entryDy=0;exitX=0.5;exitY=0;exitDx=0;exitDy=0;" edge="1" source="5CZ-4Wgj8pEYRW3QLdcZ-27" target="5CZ-4Wgj8pEYRW3QLdcZ-34" parent="WIyWlLk6GJQsqaUBKTNV-1">
          <mxGeometry width="80" relative="1" as="geometry">
            <mxPoint x="810" y="530" as="sourcePoint" />
            <mxPoint x="890" y="530" as="targetPoint" />
            <Array as="points">
              <mxPoint x="730" y="249" />
            </Array>
          </mxGeometry>
        </mxCell>
        <mxCell id="5CZ-4Wgj8pEYRW3QLdcZ-38" value="" style="html=1;verticalAlign=bottom;endArrow=block;entryX=1;entryY=0.5;entryDx=0;entryDy=0;exitX=0.5;exitY=0;exitDx=0;exitDy=0;" edge="1" source="5CZ-4Wgj8pEYRW3QLdcZ-24" target="5CZ-4Wgj8pEYRW3QLdcZ-34" parent="WIyWlLk6GJQsqaUBKTNV-1">
          <mxGeometry width="80" relative="1" as="geometry">
            <mxPoint x="810" y="530" as="sourcePoint" />
            <mxPoint x="890" y="530" as="targetPoint" />
            <Array as="points">
              <mxPoint x="900" y="249" />
            </Array>
          </mxGeometry>
        </mxCell>
        <mxCell id="5CZ-4Wgj8pEYRW3QLdcZ-39" value="" style="html=1;verticalAlign=bottom;endArrow=block;entryX=1;entryY=0.5;entryDx=0;entryDy=0;exitX=0.5;exitY=0;exitDx=0;exitDy=0;" edge="1" source="5CZ-4Wgj8pEYRW3QLdcZ-30" target="5CZ-4Wgj8pEYRW3QLdcZ-34" parent="WIyWlLk6GJQsqaUBKTNV-1">
          <mxGeometry width="80" relative="1" as="geometry">
            <mxPoint x="810" y="530" as="sourcePoint" />
            <mxPoint x="890" y="530" as="targetPoint" />
            <Array as="points">
              <mxPoint x="1070" y="249" />
            </Array>
          </mxGeometry>
        </mxCell>
        <mxCell id="5CZ-4Wgj8pEYRW3QLdcZ-56" value="Archer" style="swimlane;fontStyle=1;align=center;verticalAlign=top;childLayout=stackLayout;horizontal=1;startSize=26;horizontalStack=0;resizeParent=1;resizeParentMax=0;resizeLast=0;collapsible=1;marginBottom=0;" vertex="1" parent="WIyWlLk6GJQsqaUBKTNV-1">
          <mxGeometry x="844" y="430" width="160" height="60" as="geometry" />
        </mxCell>
        <mxCell id="5CZ-4Wgj8pEYRW3QLdcZ-57" value="" style="line;strokeWidth=1;fillColor=none;align=left;verticalAlign=middle;spacingTop=-1;spacingLeft=3;spacingRight=3;rotatable=0;labelPosition=right;points=[];portConstraint=eastwest;" vertex="1" parent="5CZ-4Wgj8pEYRW3QLdcZ-56">
          <mxGeometry y="26" width="160" height="8" as="geometry" />
        </mxCell>
        <mxCell id="5CZ-4Wgj8pEYRW3QLdcZ-58" value="+ attack(character): void" style="text;strokeColor=none;fillColor=none;align=left;verticalAlign=top;spacingLeft=4;spacingRight=4;overflow=hidden;rotatable=0;points=[[0,0.5],[1,0.5]];portConstraint=eastwest;" vertex="1" parent="5CZ-4Wgj8pEYRW3QLdcZ-56">
          <mxGeometry y="34" width="160" height="26" as="geometry" />
        </mxCell>
        <mxCell id="5CZ-4Wgj8pEYRW3QLdcZ-59" value="Warrior" style="swimlane;fontStyle=1;align=center;verticalAlign=top;childLayout=stackLayout;horizontal=1;startSize=26;horizontalStack=0;resizeParent=1;resizeParentMax=0;resizeLast=0;collapsible=1;marginBottom=0;" vertex="1" parent="WIyWlLk6GJQsqaUBKTNV-1">
          <mxGeometry x="674" y="430" width="160" height="60" as="geometry" />
        </mxCell>
        <mxCell id="5CZ-4Wgj8pEYRW3QLdcZ-60" value="" style="line;strokeWidth=1;fillColor=none;align=left;verticalAlign=middle;spacingTop=-1;spacingLeft=3;spacingRight=3;rotatable=0;labelPosition=right;points=[];portConstraint=eastwest;" vertex="1" parent="5CZ-4Wgj8pEYRW3QLdcZ-59">
          <mxGeometry y="26" width="160" height="8" as="geometry" />
        </mxCell>
        <mxCell id="5CZ-4Wgj8pEYRW3QLdcZ-61" value="+ attack(character): void" style="text;strokeColor=none;fillColor=none;align=left;verticalAlign=top;spacingLeft=4;spacingRight=4;overflow=hidden;rotatable=0;points=[[0,0.5],[1,0.5]];portConstraint=eastwest;" vertex="1" parent="5CZ-4Wgj8pEYRW3QLdcZ-59">
          <mxGeometry y="34" width="160" height="26" as="geometry" />
        </mxCell>
        <mxCell id="5CZ-4Wgj8pEYRW3QLdcZ-62" value="Wizard" style="swimlane;fontStyle=1;align=center;verticalAlign=top;childLayout=stackLayout;horizontal=1;startSize=26;horizontalStack=0;resizeParent=1;resizeParentMax=0;resizeLast=0;collapsible=1;marginBottom=0;" vertex="1" parent="WIyWlLk6GJQsqaUBKTNV-1">
          <mxGeometry x="1014" y="430" width="160" height="80" as="geometry" />
        </mxCell>
        <mxCell id="5CZ-4Wgj8pEYRW3QLdcZ-63" value="" style="line;strokeWidth=1;fillColor=none;align=left;verticalAlign=middle;spacingTop=-1;spacingLeft=3;spacingRight=3;rotatable=0;labelPosition=right;points=[];portConstraint=eastwest;" vertex="1" parent="5CZ-4Wgj8pEYRW3QLdcZ-62">
          <mxGeometry y="26" width="160" height="8" as="geometry" />
        </mxCell>
        <mxCell id="5CZ-4Wgj8pEYRW3QLdcZ-64" value="+ attack(character): void&#xa;+ buff(character): void&#xa;" style="text;strokeColor=none;fillColor=none;align=left;verticalAlign=top;spacingLeft=4;spacingRight=4;overflow=hidden;rotatable=0;points=[[0,0.5],[1,0.5]];portConstraint=eastwest;" vertex="1" parent="5CZ-4Wgj8pEYRW3QLdcZ-62">
          <mxGeometry y="34" width="160" height="46" as="geometry" />
        </mxCell>
        <mxCell id="5CZ-4Wgj8pEYRW3QLdcZ-65" value="Orcs" style="swimlane;fontStyle=1;align=center;verticalAlign=top;childLayout=stackLayout;horizontal=1;startSize=26;horizontalStack=0;resizeParent=1;resizeParentMax=0;resizeLast=0;collapsible=1;marginBottom=0;" vertex="1" parent="WIyWlLk6GJQsqaUBKTNV-1">
          <mxGeometry x="510" y="360" width="150" height="100" as="geometry" />
        </mxCell>
        <mxCell id="5CZ-4Wgj8pEYRW3QLdcZ-66" value="- healh: int" style="text;strokeColor=none;fillColor=none;align=left;verticalAlign=top;spacingLeft=4;spacingRight=4;overflow=hidden;rotatable=0;points=[[0,0.5],[1,0.5]];portConstraint=eastwest;" vertex="1" parent="5CZ-4Wgj8pEYRW3QLdcZ-65">
          <mxGeometry y="26" width="150" height="26" as="geometry" />
        </mxCell>
        <mxCell id="5CZ-4Wgj8pEYRW3QLdcZ-67" value="" style="line;strokeWidth=1;fillColor=none;align=left;verticalAlign=middle;spacingTop=-1;spacingLeft=3;spacingRight=3;rotatable=0;labelPosition=right;points=[];portConstraint=eastwest;" vertex="1" parent="5CZ-4Wgj8pEYRW3QLdcZ-65">
          <mxGeometry y="52" width="150" height="8" as="geometry" />
        </mxCell>
        <mxCell id="5CZ-4Wgj8pEYRW3QLdcZ-68" value="+ getHealth(int): int&#xa;+ setHealth(int): int&#xa;" style="text;strokeColor=none;fillColor=none;align=left;verticalAlign=top;spacingLeft=4;spacingRight=4;overflow=hidden;rotatable=0;points=[[0,0.5],[1,0.5]];portConstraint=eastwest;" vertex="1" parent="5CZ-4Wgj8pEYRW3QLdcZ-65">
          <mxGeometry y="60" width="150" height="40" as="geometry" />
        </mxCell>
        <mxCell id="5CZ-4Wgj8pEYRW3QLdcZ-69" value="" style="html=1;verticalAlign=bottom;endArrow=block;entryX=1;entryY=0.5;entryDx=0;entryDy=0;exitX=0.5;exitY=0;exitDx=0;exitDy=0;" edge="1" source="5CZ-4Wgj8pEYRW3QLdcZ-59" target="5CZ-4Wgj8pEYRW3QLdcZ-66" parent="WIyWlLk6GJQsqaUBKTNV-1">
          <mxGeometry width="80" relative="1" as="geometry">
            <mxPoint x="810" y="680" as="sourcePoint" />
            <mxPoint x="890" y="680" as="targetPoint" />
            <Array as="points">
              <mxPoint x="730" y="399" />
            </Array>
          </mxGeometry>
        </mxCell>
        <mxCell id="5CZ-4Wgj8pEYRW3QLdcZ-70" value="" style="html=1;verticalAlign=bottom;endArrow=block;entryX=1;entryY=0.5;entryDx=0;entryDy=0;exitX=0.5;exitY=0;exitDx=0;exitDy=0;" edge="1" source="5CZ-4Wgj8pEYRW3QLdcZ-56" target="5CZ-4Wgj8pEYRW3QLdcZ-66" parent="WIyWlLk6GJQsqaUBKTNV-1">
          <mxGeometry width="80" relative="1" as="geometry">
            <mxPoint x="810" y="680" as="sourcePoint" />
            <mxPoint x="890" y="680" as="targetPoint" />
            <Array as="points">
              <mxPoint x="900" y="399" />
            </Array>
          </mxGeometry>
        </mxCell>
        <mxCell id="5CZ-4Wgj8pEYRW3QLdcZ-71" value="" style="html=1;verticalAlign=bottom;endArrow=block;entryX=1;entryY=0.5;entryDx=0;entryDy=0;exitX=0.5;exitY=0;exitDx=0;exitDy=0;" edge="1" source="5CZ-4Wgj8pEYRW3QLdcZ-62" target="5CZ-4Wgj8pEYRW3QLdcZ-66" parent="WIyWlLk6GJQsqaUBKTNV-1">
          <mxGeometry width="80" relative="1" as="geometry">
            <mxPoint x="810" y="680" as="sourcePoint" />
            <mxPoint x="890" y="680" as="targetPoint" />
            <Array as="points">
              <mxPoint x="1070" y="399" />
            </Array>
          </mxGeometry>
        </mxCell>
        <mxCell id="5CZ-4Wgj8pEYRW3QLdcZ-72" value="Archer" style="swimlane;fontStyle=1;align=center;verticalAlign=top;childLayout=stackLayout;horizontal=1;startSize=26;horizontalStack=0;resizeParent=1;resizeParentMax=0;resizeLast=0;collapsible=1;marginBottom=0;" vertex="1" parent="WIyWlLk6GJQsqaUBKTNV-1">
          <mxGeometry x="844" y="580" width="160" height="60" as="geometry" />
        </mxCell>
        <mxCell id="5CZ-4Wgj8pEYRW3QLdcZ-73" value="" style="line;strokeWidth=1;fillColor=none;align=left;verticalAlign=middle;spacingTop=-1;spacingLeft=3;spacingRight=3;rotatable=0;labelPosition=right;points=[];portConstraint=eastwest;" vertex="1" parent="5CZ-4Wgj8pEYRW3QLdcZ-72">
          <mxGeometry y="26" width="160" height="8" as="geometry" />
        </mxCell>
        <mxCell id="5CZ-4Wgj8pEYRW3QLdcZ-74" value="+ attack(character): void" style="text;strokeColor=none;fillColor=none;align=left;verticalAlign=top;spacingLeft=4;spacingRight=4;overflow=hidden;rotatable=0;points=[[0,0.5],[1,0.5]];portConstraint=eastwest;" vertex="1" parent="5CZ-4Wgj8pEYRW3QLdcZ-72">
          <mxGeometry y="34" width="160" height="26" as="geometry" />
        </mxCell>
        <mxCell id="5CZ-4Wgj8pEYRW3QLdcZ-75" value="Warrior" style="swimlane;fontStyle=1;align=center;verticalAlign=top;childLayout=stackLayout;horizontal=1;startSize=26;horizontalStack=0;resizeParent=1;resizeParentMax=0;resizeLast=0;collapsible=1;marginBottom=0;" vertex="1" parent="WIyWlLk6GJQsqaUBKTNV-1">
          <mxGeometry x="674" y="580" width="160" height="60" as="geometry" />
        </mxCell>
        <mxCell id="5CZ-4Wgj8pEYRW3QLdcZ-76" value="" style="line;strokeWidth=1;fillColor=none;align=left;verticalAlign=middle;spacingTop=-1;spacingLeft=3;spacingRight=3;rotatable=0;labelPosition=right;points=[];portConstraint=eastwest;" vertex="1" parent="5CZ-4Wgj8pEYRW3QLdcZ-75">
          <mxGeometry y="26" width="160" height="8" as="geometry" />
        </mxCell>
        <mxCell id="5CZ-4Wgj8pEYRW3QLdcZ-77" value="+ attack(character): void" style="text;strokeColor=none;fillColor=none;align=left;verticalAlign=top;spacingLeft=4;spacingRight=4;overflow=hidden;rotatable=0;points=[[0,0.5],[1,0.5]];portConstraint=eastwest;" vertex="1" parent="5CZ-4Wgj8pEYRW3QLdcZ-75">
          <mxGeometry y="34" width="160" height="26" as="geometry" />
        </mxCell>
        <mxCell id="5CZ-4Wgj8pEYRW3QLdcZ-78" value="Wizard" style="swimlane;fontStyle=1;align=center;verticalAlign=top;childLayout=stackLayout;horizontal=1;startSize=26;horizontalStack=0;resizeParent=1;resizeParentMax=0;resizeLast=0;collapsible=1;marginBottom=0;" vertex="1" parent="WIyWlLk6GJQsqaUBKTNV-1">
          <mxGeometry x="1014" y="580" width="160" height="80" as="geometry" />
        </mxCell>
        <mxCell id="5CZ-4Wgj8pEYRW3QLdcZ-79" value="" style="line;strokeWidth=1;fillColor=none;align=left;verticalAlign=middle;spacingTop=-1;spacingLeft=3;spacingRight=3;rotatable=0;labelPosition=right;points=[];portConstraint=eastwest;" vertex="1" parent="5CZ-4Wgj8pEYRW3QLdcZ-78">
          <mxGeometry y="26" width="160" height="8" as="geometry" />
        </mxCell>
        <mxCell id="5CZ-4Wgj8pEYRW3QLdcZ-80" value="+ attack(character): void&#xa;+ buff(character): void&#xa;" style="text;strokeColor=none;fillColor=none;align=left;verticalAlign=top;spacingLeft=4;spacingRight=4;overflow=hidden;rotatable=0;points=[[0,0.5],[1,0.5]];portConstraint=eastwest;" vertex="1" parent="5CZ-4Wgj8pEYRW3QLdcZ-78">
          <mxGeometry y="34" width="160" height="46" as="geometry" />
        </mxCell>
        <mxCell id="5CZ-4Wgj8pEYRW3QLdcZ-81" value="Undead" style="swimlane;fontStyle=1;align=center;verticalAlign=top;childLayout=stackLayout;horizontal=1;startSize=26;horizontalStack=0;resizeParent=1;resizeParentMax=0;resizeLast=0;collapsible=1;marginBottom=0;" vertex="1" parent="WIyWlLk6GJQsqaUBKTNV-1">
          <mxGeometry x="510" y="510" width="150" height="100" as="geometry" />
        </mxCell>
        <mxCell id="5CZ-4Wgj8pEYRW3QLdcZ-82" value="- healh: int" style="text;strokeColor=none;fillColor=none;align=left;verticalAlign=top;spacingLeft=4;spacingRight=4;overflow=hidden;rotatable=0;points=[[0,0.5],[1,0.5]];portConstraint=eastwest;" vertex="1" parent="5CZ-4Wgj8pEYRW3QLdcZ-81">
          <mxGeometry y="26" width="150" height="26" as="geometry" />
        </mxCell>
        <mxCell id="5CZ-4Wgj8pEYRW3QLdcZ-83" value="" style="line;strokeWidth=1;fillColor=none;align=left;verticalAlign=middle;spacingTop=-1;spacingLeft=3;spacingRight=3;rotatable=0;labelPosition=right;points=[];portConstraint=eastwest;" vertex="1" parent="5CZ-4Wgj8pEYRW3QLdcZ-81">
          <mxGeometry y="52" width="150" height="8" as="geometry" />
        </mxCell>
        <mxCell id="5CZ-4Wgj8pEYRW3QLdcZ-84" value="+ getHealth(int): int&#xa;+ setHealth(int): int&#xa;" style="text;strokeColor=none;fillColor=none;align=left;verticalAlign=top;spacingLeft=4;spacingRight=4;overflow=hidden;rotatable=0;points=[[0,0.5],[1,0.5]];portConstraint=eastwest;" vertex="1" parent="5CZ-4Wgj8pEYRW3QLdcZ-81">
          <mxGeometry y="60" width="150" height="40" as="geometry" />
        </mxCell>
        <mxCell id="5CZ-4Wgj8pEYRW3QLdcZ-85" value="" style="html=1;verticalAlign=bottom;endArrow=block;entryX=1;entryY=0.5;entryDx=0;entryDy=0;exitX=0.5;exitY=0;exitDx=0;exitDy=0;" edge="1" source="5CZ-4Wgj8pEYRW3QLdcZ-75" target="5CZ-4Wgj8pEYRW3QLdcZ-82" parent="WIyWlLk6GJQsqaUBKTNV-1">
          <mxGeometry width="80" relative="1" as="geometry">
            <mxPoint x="810" y="830" as="sourcePoint" />
            <mxPoint x="890" y="830" as="targetPoint" />
            <Array as="points">
              <mxPoint x="730" y="549" />
            </Array>
          </mxGeometry>
        </mxCell>
        <mxCell id="5CZ-4Wgj8pEYRW3QLdcZ-86" value="" style="html=1;verticalAlign=bottom;endArrow=block;entryX=1;entryY=0.5;entryDx=0;entryDy=0;exitX=0.5;exitY=0;exitDx=0;exitDy=0;" edge="1" source="5CZ-4Wgj8pEYRW3QLdcZ-72" target="5CZ-4Wgj8pEYRW3QLdcZ-82" parent="WIyWlLk6GJQsqaUBKTNV-1">
          <mxGeometry width="80" relative="1" as="geometry">
            <mxPoint x="810" y="830" as="sourcePoint" />
            <mxPoint x="890" y="830" as="targetPoint" />
            <Array as="points">
              <mxPoint x="900" y="549" />
            </Array>
          </mxGeometry>
        </mxCell>
        <mxCell id="5CZ-4Wgj8pEYRW3QLdcZ-87" value="" style="html=1;verticalAlign=bottom;endArrow=block;entryX=1;entryY=0.5;entryDx=0;entryDy=0;exitX=0.5;exitY=0;exitDx=0;exitDy=0;" edge="1" source="5CZ-4Wgj8pEYRW3QLdcZ-78" target="5CZ-4Wgj8pEYRW3QLdcZ-82" parent="WIyWlLk6GJQsqaUBKTNV-1">
          <mxGeometry width="80" relative="1" as="geometry">
            <mxPoint x="810" y="830" as="sourcePoint" />
            <mxPoint x="890" y="830" as="targetPoint" />
            <Array as="points">
              <mxPoint x="1070" y="549" />
            </Array>
          </mxGeometry>
        </mxCell>
        <mxCell id="5CZ-4Wgj8pEYRW3QLdcZ-88" value="Arena" style="swimlane;fontStyle=1;align=center;verticalAlign=top;childLayout=stackLayout;horizontal=1;startSize=26;horizontalStack=0;resizeParent=1;resizeParentMax=0;resizeLast=0;collapsible=1;marginBottom=0;" vertex="1" parent="WIyWlLk6GJQsqaUBKTNV-1">
          <mxGeometry x="100" y="262" width="220" height="78" as="geometry" />
        </mxCell>
        <mxCell id="5CZ-4Wgj8pEYRW3QLdcZ-89" value="+ firstSquad:Collection&#xa;+ secondSquad: Collection&#xa;" style="text;strokeColor=none;fillColor=none;align=left;verticalAlign=top;spacingLeft=4;spacingRight=4;overflow=hidden;rotatable=0;points=[[0,0.5],[1,0.5]];portConstraint=eastwest;" vertex="1" parent="5CZ-4Wgj8pEYRW3QLdcZ-88">
          <mxGeometry y="26" width="220" height="44" as="geometry" />
        </mxCell>
        <mxCell id="5CZ-4Wgj8pEYRW3QLdcZ-90" value="" style="line;strokeWidth=1;fillColor=none;align=left;verticalAlign=middle;spacingTop=-1;spacingLeft=3;spacingRight=3;rotatable=0;labelPosition=right;points=[];portConstraint=eastwest;" vertex="1" parent="5CZ-4Wgj8pEYRW3QLdcZ-88">
          <mxGeometry y="70" width="220" height="8" as="geometry" />
        </mxCell>
        <mxCell id="5CZ-4Wgj8pEYRW3QLdcZ-92" value="" style="html=1;verticalAlign=bottom;startArrow=oval;startFill=1;endArrow=block;startSize=8;entryX=0.5;entryY=0;entryDx=0;entryDy=0;exitX=1;exitY=0.5;exitDx=0;exitDy=0;" edge="1" parent="WIyWlLk6GJQsqaUBKTNV-1" source="5CZ-4Wgj8pEYRW3QLdcZ-89" target="5CZ-4Wgj8pEYRW3QLdcZ-81">
          <mxGeometry width="60" relative="1" as="geometry">
            <mxPoint x="310" y="530" as="sourcePoint" />
            <mxPoint x="370" y="530" as="targetPoint" />
            <Array as="points">
              <mxPoint x="360" y="310" />
              <mxPoint x="450" y="460" />
            </Array>
          </mxGeometry>
        </mxCell>
        <mxCell id="5CZ-4Wgj8pEYRW3QLdcZ-93" value="" style="html=1;verticalAlign=bottom;startArrow=oval;startFill=1;endArrow=block;startSize=8;exitX=1;exitY=0.5;exitDx=0;exitDy=0;entryX=0.5;entryY=0;entryDx=0;entryDy=0;" edge="1" parent="WIyWlLk6GJQsqaUBKTNV-1" source="5CZ-4Wgj8pEYRW3QLdcZ-89" target="5CZ-4Wgj8pEYRW3QLdcZ-65">
          <mxGeometry width="60" relative="1" as="geometry">
            <mxPoint x="290" y="430" as="sourcePoint" />
            <mxPoint x="350" y="430" as="targetPoint" />
            <Array as="points">
              <mxPoint x="360" y="310" />
            </Array>
          </mxGeometry>
        </mxCell>
        <mxCell id="5CZ-4Wgj8pEYRW3QLdcZ-94" value="" style="html=1;verticalAlign=bottom;startArrow=oval;startFill=1;endArrow=block;startSize=8;exitX=1;exitY=0.5;exitDx=0;exitDy=0;entryX=0.5;entryY=0;entryDx=0;entryDy=0;" edge="1" parent="WIyWlLk6GJQsqaUBKTNV-1" source="5CZ-4Wgj8pEYRW3QLdcZ-89" target="5CZ-4Wgj8pEYRW3QLdcZ-33">
          <mxGeometry width="60" relative="1" as="geometry">
            <mxPoint x="290" y="430" as="sourcePoint" />
            <mxPoint x="350" y="430" as="targetPoint" />
            <Array as="points">
              <mxPoint x="360" y="310" />
              <mxPoint x="440" y="190" />
            </Array>
          </mxGeometry>
        </mxCell>
        <mxCell id="5CZ-4Wgj8pEYRW3QLdcZ-95" value="" style="html=1;verticalAlign=bottom;startArrow=oval;startFill=1;endArrow=block;startSize=8;exitX=1;exitY=0.5;exitDx=0;exitDy=0;entryX=0.5;entryY=0;entryDx=0;entryDy=0;" edge="1" parent="WIyWlLk6GJQsqaUBKTNV-1" source="5CZ-4Wgj8pEYRW3QLdcZ-89" target="5CZ-4Wgj8pEYRW3QLdcZ-16">
          <mxGeometry width="60" relative="1" as="geometry">
            <mxPoint x="290" y="400" as="sourcePoint" />
            <mxPoint x="350" y="400" as="targetPoint" />
            <Array as="points">
              <mxPoint x="360" y="310" />
              <mxPoint x="440" y="40" />
            </Array>
          </mxGeometry>
        </mxCell>
        <mxCell id="5CZ-4Wgj8pEYRW3QLdcZ-98" style="edgeStyle=orthogonalEdgeStyle;rounded=0;orthogonalLoop=1;jettySize=auto;html=1;exitX=0.5;exitY=0;exitDx=0;exitDy=0;entryX=0.5;entryY=1;entryDx=0;entryDy=0;" edge="1" parent="WIyWlLk6GJQsqaUBKTNV-1" source="5CZ-4Wgj8pEYRW3QLdcZ-97" target="5CZ-4Wgj8pEYRW3QLdcZ-88">
          <mxGeometry relative="1" as="geometry" />
        </mxCell>
        <mxCell id="5CZ-4Wgj8pEYRW3QLdcZ-97" value="«interface»&lt;br&gt;&lt;b&gt;Output&lt;/b&gt;" style="html=1;" vertex="1" parent="WIyWlLk6GJQsqaUBKTNV-1">
          <mxGeometry x="155" y="390" width="110" height="50" as="geometry" />
        </mxCell>
        <mxCell id="5CZ-4Wgj8pEYRW3QLdcZ-99" value="ConsoleOutput" style="swimlane;fontStyle=1;align=center;verticalAlign=top;childLayout=stackLayout;horizontal=1;startSize=26;horizontalStack=0;resizeParent=1;resizeParentMax=0;resizeLast=0;collapsible=1;marginBottom=0;" vertex="1" parent="WIyWlLk6GJQsqaUBKTNV-1">
          <mxGeometry x="10" y="490" width="160" height="60" as="geometry" />
        </mxCell>
        <mxCell id="5CZ-4Wgj8pEYRW3QLdcZ-101" value="" style="line;strokeWidth=1;fillColor=none;align=left;verticalAlign=middle;spacingTop=-1;spacingLeft=3;spacingRight=3;rotatable=0;labelPosition=right;points=[];portConstraint=eastwest;" vertex="1" parent="5CZ-4Wgj8pEYRW3QLdcZ-99">
          <mxGeometry y="26" width="160" height="8" as="geometry" />
        </mxCell>
        <mxCell id="5CZ-4Wgj8pEYRW3QLdcZ-102" value="+ output: String" style="text;strokeColor=none;fillColor=none;align=left;verticalAlign=top;spacingLeft=4;spacingRight=4;overflow=hidden;rotatable=0;points=[[0,0.5],[1,0.5]];portConstraint=eastwest;" vertex="1" parent="5CZ-4Wgj8pEYRW3QLdcZ-99">
          <mxGeometry y="34" width="160" height="26" as="geometry" />
        </mxCell>
        <mxCell id="5CZ-4Wgj8pEYRW3QLdcZ-103" value="Use" style="endArrow=open;endSize=12;dashed=1;html=1;exitX=0.5;exitY=0;exitDx=0;exitDy=0;entryX=0;entryY=0.5;entryDx=0;entryDy=0;" edge="1" parent="WIyWlLk6GJQsqaUBKTNV-1" source="5CZ-4Wgj8pEYRW3QLdcZ-99" target="5CZ-4Wgj8pEYRW3QLdcZ-97">
          <mxGeometry width="160" relative="1" as="geometry">
            <mxPoint x="470" y="420" as="sourcePoint" />
            <mxPoint x="630" y="420" as="targetPoint" />
            <Array as="points">
              <mxPoint x="90" y="415" />
            </Array>
          </mxGeometry>
        </mxCell>
        <mxCell id="5CZ-4Wgj8pEYRW3QLdcZ-104" value="LogFileOutput" style="swimlane;fontStyle=1;align=center;verticalAlign=top;childLayout=stackLayout;horizontal=1;startSize=26;horizontalStack=0;resizeParent=1;resizeParentMax=0;resizeLast=0;collapsible=1;marginBottom=0;" vertex="1" parent="WIyWlLk6GJQsqaUBKTNV-1">
          <mxGeometry x="240" y="490" width="160" height="60" as="geometry" />
        </mxCell>
        <mxCell id="5CZ-4Wgj8pEYRW3QLdcZ-105" value="" style="line;strokeWidth=1;fillColor=none;align=left;verticalAlign=middle;spacingTop=-1;spacingLeft=3;spacingRight=3;rotatable=0;labelPosition=right;points=[];portConstraint=eastwest;" vertex="1" parent="5CZ-4Wgj8pEYRW3QLdcZ-104">
          <mxGeometry y="26" width="160" height="8" as="geometry" />
        </mxCell>
        <mxCell id="5CZ-4Wgj8pEYRW3QLdcZ-106" value="+ output: String" style="text;strokeColor=none;fillColor=none;align=left;verticalAlign=top;spacingLeft=4;spacingRight=4;overflow=hidden;rotatable=0;points=[[0,0.5],[1,0.5]];portConstraint=eastwest;" vertex="1" parent="5CZ-4Wgj8pEYRW3QLdcZ-104">
          <mxGeometry y="34" width="160" height="26" as="geometry" />
        </mxCell>
        <mxCell id="5CZ-4Wgj8pEYRW3QLdcZ-108" value="Use" style="endArrow=open;endSize=12;dashed=1;html=1;exitX=0.5;exitY=0;exitDx=0;exitDy=0;entryX=1;entryY=0.5;entryDx=0;entryDy=0;" edge="1" parent="WIyWlLk6GJQsqaUBKTNV-1" source="5CZ-4Wgj8pEYRW3QLdcZ-104" target="5CZ-4Wgj8pEYRW3QLdcZ-97">
          <mxGeometry width="160" relative="1" as="geometry">
            <mxPoint x="470" y="420" as="sourcePoint" />
            <mxPoint x="630" y="420" as="targetPoint" />
            <Array as="points">
              <mxPoint x="320" y="415" />
            </Array>
          </mxGeometry>
        </mxCell>
      </root>
    </mxGraphModel>
  </diagram>
</mxfile>
